#Comment line ignore any data following # character 
#Hierarchical Translation and Rotation (.htr) file 
[Header]	
#Header keywords are followed by a single value 
FileType HTR		#Single word string
DataType HTRS		#Translation followed by rotation and scale data
FileVersion 1		#integer
NumSegments 84		#integer
NumFrames 2		#integer
DataFrameRate 30		#integer, data frame rate in this file
EulerRotationOrder ZYX
CalibrationUnits mm
RotationUnits Degrees
GlobalAxisofGravity Y
BoneLengthAxis Y
ScaleFactor 1.00
[SegmentNames&Hierarchy]
#CHILD	PARENT
MASTER GLOBAL
root MASTER
chest root
L_mid_tent01 root
R_mid_tent01 root
spine01 root
Bip01_Neck chest
L_humerus chest
R_humerus chest
weapon_bone chest
Bip01_Head Bip01_Neck
eye_left_bone Bip01_Head
eye_right_bone Bip01_Head
L_forearm L_humerus
L_front_hand L_forearm
L_weapon_bone L_forearm
L_front_hand01_01 L_front_hand
L_front_hand02_01 L_front_hand
L_front_hand03_01 L_front_hand
L_front_hand01_02 L_front_hand01_01
L_front_hand02_02 L_front_hand02_01
L_front_hand03_02 L_front_hand03_01
R_forearm R_humerus
R_front_hand R_forearm
R_weapon_bone R_forearm
R_front_hand01_01 R_front_hand
R_front_hand02_01 R_front_hand
R_front_hand03_01 R_front_hand
R_front_hand01_02 R_front_hand01_01
R_front_hand02_02 R_front_hand02_01
R_front_hand03_02 R_front_hand03_01
null_rope01_connect L_mid_tent01
Rope1_Seg01 null_rope01_connect
Rope1_Seg02 Rope1_Seg01
Rope1_Seg03 Rope1_Seg02
Rope1_Seg04 Rope1_Seg03
Rope1_Seg05 Rope1_Seg04
Rope1_Seg06 Rope1_Seg05
Rope1_Seg07 Rope1_Seg06
Rope1_Seg09 Rope1_Seg07
L_mid_hand01 Rope1_Seg09
L_mid_hand02 Rope1_Seg09
L_mid_hand03 Rope1_Seg09
null_rope02_connect R_mid_tent01
Rope2_Seg01 null_rope02_connect
Rope2_Seg02 Rope2_Seg01
Rope2_Seg03 Rope2_Seg02
Rope2_Seg04 Rope2_Seg03
Rope2_Seg05 Rope2_Seg04
Rope2_Seg06 Rope2_Seg05
Rope2_Seg07 Rope2_Seg06
Rope2_Seg09 Rope2_Seg07
R_mid_hand01 Rope2_Seg09
R_mid_hand02 Rope2_Seg09
R_mid_hand03 Rope2_Seg09
spine02 spine01
spine03 spine02
pelvis spine03
null_rope03_connect pelvis
null_rope04_connect pelvis
Rope3_Seg01 null_rope03_connect
Rope3_Seg02 Rope3_Seg01
Rope3_Seg03 Rope3_Seg02
Rope3_Seg04 Rope3_Seg03
Rope3_Seg05 Rope3_Seg04
Rope3_Seg06 Rope3_Seg05
Rope3_Seg07 Rope3_Seg06
Rope3_Seg08 Rope3_Seg07
Rope3_Seg09 Rope3_Seg08
R_rear_hand01 Rope3_Seg09
R_rear_hand02 Rope3_Seg09
R_rear_hand03 Rope3_Seg09
Rope4_Seg01 null_rope04_connect
Rope4_Seg02 Rope4_Seg01
Rope4_Seg03 Rope4_Seg02
Rope4_Seg04 Rope4_Seg03
Rope4_Seg05 Rope4_Seg04
Rope4_Seg06 Rope4_Seg05
Rope4_Seg07 Rope4_Seg06
Rope4_Seg08 Rope4_Seg07
Rope4_Seg09 Rope4_Seg08
L_rear_hand01 Rope4_Seg09
L_rear_hand02 Rope4_Seg09
L_rear_hand03 Rope4_Seg09
[BasePosition]
#SegmentName Tx, Ty, Tz, Rx, Ry, Rz, BoneLength
MASTER 0.000000 0.000000 0.000000 -90.000000 0.000000 0.000000 10.000000 
root 0.000000 0.000000 0.000000 0.000000 0.000000 0.000000 10.000000 
chest 0.000000 0.000000 0.000000 0.000000 0.000000 0.000000 10.000000 
L_mid_tent01 0.000000 0.000000 0.000000 0.000000 0.000000 0.000000 10.000000 
R_mid_tent01 0.000000 0.000000 0.000000 0.000000 0.000000 0.000000 10.000000 
spine01 0.000000 0.000000 0.000000 0.000000 0.000000 0.000000 10.000000 
Bip01_Neck 0.000000 0.000000 0.000000 0.000000 0.000000 0.000000 10.000000 
L_humerus 0.000000 0.000000 0.000000 0.000000 0.000000 0.000000 10.000000 
R_humerus 0.000000 0.000000 0.000000 0.000000 0.000000 0.000000 10.000000 
weapon_bone 0.000000 0.000000 0.000000 0.000000 0.000000 0.000000 10.000000 
Bip01_Head 0.000000 0.000000 0.000000 0.000000 0.000000 0.000000 10.000000 
eye_left_bone 0.000000 0.000000 0.000000 0.000000 0.000000 0.000000 10.000000 
eye_right_bone 0.000000 0.000000 0.000000 0.000000 0.000000 0.000000 10.000000 
L_forearm 0.000000 0.000000 0.000000 0.000000 0.000000 0.000000 10.000000 
L_front_hand 0.000000 0.000000 0.000000 0.000000 0.000000 0.000000 10.000000 
L_weapon_bone 0.000000 0.000000 0.000000 0.000000 0.000000 0.000000 10.000000 
L_front_hand01_01 0.000000 0.000000 0.000000 0.000000 0.000000 0.000000 10.000000 
L_front_hand02_01 0.000000 0.000000 0.000000 0.000000 0.000000 0.000000 10.000000 
L_front_hand03_01 0.000000 0.000000 0.000000 0.000000 0.000000 0.000000 10.000000 
L_front_hand01_02 0.000000 0.000000 0.000000 0.000000 0.000000 0.000000 10.000000 
L_front_hand02_02 0.000000 0.000000 0.000000 0.000000 0.000000 0.000000 10.000000 
L_front_hand03_02 0.000000 0.000000 0.000000 0.000000 0.000000 0.000000 10.000000 
R_forearm 0.000000 0.000000 0.000000 0.000000 0.000000 0.000000 10.000000 
R_front_hand 0.000000 0.000000 0.000000 0.000000 0.000000 0.000000 10.000000 
R_weapon_bone 0.000000 0.000000 0.000000 0.000000 0.000000 0.000000 10.000000 
R_front_hand01_01 0.000000 0.000000 0.000000 0.000000 0.000000 0.000000 10.000000 
R_front_hand02_01 0.000000 0.000000 0.000000 0.000000 0.000000 0.000000 10.000000 
R_front_hand03_01 0.000000 0.000000 0.000000 0.000000 0.000000 0.000000 10.000000 
R_front_hand01_02 0.000000 0.000000 0.000000 0.000000 0.000000 0.000000 10.000000 
R_front_hand02_02 0.000000 0.000000 0.000000 0.000000 0.000000 0.000000 10.000000 
R_front_hand03_02 0.000000 0.000000 0.000000 0.000000 0.000000 0.000000 10.000000 
null_rope01_connect 0.000000 0.000000 0.000000 0.000000 0.000000 0.000000 10.000000 
Rope1_Seg01 0.000000 0.000000 0.000000 0.000000 0.000000 0.000000 10.000000 
Rope1_Seg02 0.000000 0.000000 0.000000 0.000000 0.000000 0.000000 10.000000 
Rope1_Seg03 0.000000 0.000000 0.000000 0.000000 0.000000 0.000000 10.000000 
Rope1_Seg04 0.000000 0.000000 0.000000 0.000000 0.000000 0.000000 10.000000 
Rope1_Seg05 0.000000 0.000000 0.000000 0.000000 0.000000 0.000000 10.000000 
Rope1_Seg06 0.000000 0.000000 0.000000 0.000000 0.000000 0.000000 10.000000 
Rope1_Seg07 0.000000 0.000000 0.000000 0.000000 0.000000 0.000000 10.000000 
Rope1_Seg09 0.000000 0.000000 0.000000 0.000000 0.000000 0.000000 10.000000 
L_mid_hand01 0.000000 0.000000 0.000000 0.000000 0.000000 0.000000 10.000000 
L_mid_hand02 0.000000 0.000000 0.000000 0.000000 0.000000 0.000000 10.000000 
L_mid_hand03 0.000000 0.000000 0.000000 0.000000 0.000000 0.000000 10.000000 
null_rope02_connect 0.000000 0.000000 0.000000 0.000000 0.000000 0.000000 10.000000 
Rope2_Seg01 0.000000 0.000000 0.000000 0.000000 0.000000 0.000000 10.000000 
Rope2_Seg02 0.000000 0.000000 0.000000 0.000000 0.000000 0.000000 10.000000 
Rope2_Seg03 0.000000 0.000000 0.000000 0.000000 0.000000 0.000000 10.000000 
Rope2_Seg04 0.000000 0.000000 0.000000 0.000000 0.000000 0.000000 10.000000 
Rope2_Seg05 0.000000 0.000000 0.000000 0.000000 0.000000 0.000000 10.000000 
Rope2_Seg06 0.000000 0.000000 0.000000 0.000000 0.000000 0.000000 10.000000 
Rope2_Seg07 0.000000 0.000000 0.000000 0.000000 0.000000 0.000000 10.000000 
Rope2_Seg09 0.000000 0.000000 0.000000 0.000000 0.000000 0.000000 10.000000 
R_mid_hand01 0.000000 0.000000 0.000000 0.000000 0.000000 0.000000 10.000000 
R_mid_hand02 0.000000 0.000000 0.000000 0.000000 0.000000 0.000000 10.000000 
R_mid_hand03 0.000000 0.000000 0.000000 0.000000 0.000000 0.000000 10.000000 
spine02 0.000000 0.000000 0.000000 0.000000 0.000000 0.000000 10.000000 
spine03 0.000000 0.000000 0.000000 0.000000 0.000000 0.000000 10.000000 
pelvis 0.000000 0.000000 0.000000 0.000000 0.000000 0.000000 10.000000 
null_rope03_connect 0.000000 0.000000 0.000000 0.000000 0.000000 0.000000 10.000000 
null_rope04_connect 0.000000 0.000000 0.000000 0.000000 0.000000 0.000000 10.000000 
Rope3_Seg01 0.000000 0.000000 0.000000 0.000000 0.000000 0.000000 10.000000 
Rope3_Seg02 0.000000 0.000000 0.000000 0.000000 0.000000 0.000000 10.000000 
Rope3_Seg03 0.000000 0.000000 0.000000 0.000000 0.000000 0.000000 10.000000 
Rope3_Seg04 0.000000 0.000000 0.000000 0.000000 0.000000 0.000000 10.000000 
Rope3_Seg05 0.000000 0.000000 0.000000 0.000000 0.000000 0.000000 10.000000 
Rope3_Seg06 0.000000 0.000000 0.000000 0.000000 0.000000 0.000000 10.000000 
Rope3_Seg07 0.000000 0.000000 0.000000 0.000000 0.000000 0.000000 10.000000 
Rope3_Seg08 0.000000 0.000000 0.000000 0.000000 0.000000 0.000000 10.000000 
Rope3_Seg09 0.000000 0.000000 0.000000 0.000000 0.000000 0.000000 10.000000 
R_rear_hand01 0.000000 0.000000 0.000000 0.000000 0.000000 0.000000 10.000000 
R_rear_hand02 0.000000 0.000000 0.000000 0.000000 0.000000 0.000000 10.000000 
R_rear_hand03 0.000000 0.000000 0.000000 0.000000 0.000000 0.000000 10.000000 
Rope4_Seg01 0.000000 0.000000 0.000000 0.000000 0.000000 0.000000 10.000000 
Rope4_Seg02 0.000000 0.000000 0.000000 0.000000 0.000000 0.000000 10.000000 
Rope4_Seg03 0.000000 0.000000 0.000000 0.000000 0.000000 0.000000 10.000000 
Rope4_Seg04 0.000000 0.000000 0.000000 0.000000 0.000000 0.000000 10.000000 
Rope4_Seg05 0.000000 0.000000 0.000000 0.000000 0.000000 0.000000 10.000000 
Rope4_Seg06 0.000000 0.000000 0.000000 0.000000 0.000000 0.000000 10.000000 
Rope4_Seg07 0.000000 0.000000 0.000000 0.000000 0.000000 0.000000 10.000000 
Rope4_Seg08 0.000000 0.000000 0.000000 0.000000 0.000000 0.000000 10.000000 
Rope4_Seg09 0.000000 0.000000 0.000000 0.000000 0.000000 0.000000 10.000000 
L_rear_hand01 0.000000 0.000000 0.000000 0.000000 0.000000 0.000000 10.000000 
L_rear_hand02 0.000000 0.000000 0.000000 0.000000 0.000000 0.000000 10.000000 
L_rear_hand03 0.000000 0.000000 0.000000 0.000000 0.000000 0.000000 10.000000 
#Beginning of Data. Separated by tabs
#Fr	Tx	Ty	Tz	Rx	Ry	Rz	SF
[MASTER]
23 0.000000 0.000000 0.000000 0.001660 0.001660 0.001660 0.000000
24 0.000000 0.000000 0.000000 0.001660 0.001660 0.001660 0.000000
[root]
23 0.099039 -14.347788 483.502808 -88.581917 -10.449947 -90.639961 483.715637
24 1.479914 -14.348907 472.594574 -88.581924 -10.449950 -90.639977 472.814667
[chest]
23 -84.512650 -34.090519 0.000000 -2.029104 3.785990 -179.004639 91.129311
24 -84.512650 -34.090519 0.000000 -2.029104 3.785991 -179.004639 91.129311
[L_mid_tent01]
23 27.299582 22.177393 -249.918259 -51.172504 38.318104 48.578171 252.381134
24 27.299585 22.177385 -249.918259 -57.598091 38.325153 45.730434 252.381134
[R_mid_tent01]
23 23.228794 24.509907 226.238495 -135.921951 -32.718204 44.082958 228.744751
24 23.228794 24.509907 226.238495 -131.157272 -34.882195 40.328850 228.744751
[spine01]
23 -0.361383 -0.195265 0.000000 0.001845 0.001451 13.654368 0.410763
24 -0.361383 -0.195265 0.000000 0.001845 0.001451 13.654369 0.410763
[Bip01_Neck]
23 165.484543 71.581718 0.000119 176.643677 -1.657967 43.431911 180.302734
24 165.484543 71.581718 0.000119 176.643677 -1.657967 43.431919 180.302734
[L_humerus]
23 -13.983130 -135.272980 -120.471481 129.271164 57.633717 -149.702240 181.680161
24 -13.983130 -135.272980 -120.471481 128.764587 57.495228 -149.275131 181.680161
[R_humerus]
23 -13.983309 -135.273102 125.287651 -125.798477 -38.835625 -152.998077 184.909012
24 -13.983309 -135.273102 125.287651 -128.068832 -39.104881 -153.182327 184.909012
[weapon_bone]
23 235.964890 -300.705902 0.000000 0.000000 -89.951546 -128.212341 382.234833
24 235.964890 -300.705902 0.000000 0.000000 -89.951546 -128.212341 382.234833
[Bip01_Head]
23 129.840485 129.546188 8.318176 2.001952 3.771739 -20.260962 183.602722
24 128.171875 128.412277 8.333408 1.938589 3.724704 -19.795944 181.623749
[eye_left_bone]
23 -24.626970 125.451866 -64.772606 0.000000 -90.000000 -99.840431 143.318359
24 -24.626970 125.451866 -64.772606 0.000000 -90.000000 -99.840431 143.318359
[eye_right_bone]
23 -24.626970 125.451866 64.327362 0.000000 -89.965736 80.156380 143.117676
24 -24.626970 125.451866 64.327362 0.000000 -90.000000 80.156387 143.117676
[L_forearm]
23 322.776093 0.000000 -0.000119 0.000725 -0.002232 -125.984985 322.776093
24 322.776093 0.000000 -0.000119 0.000719 -0.002234 -125.690590 322.776093
[L_front_hand]
23 241.149185 -0.042021 -3.300071 -178.667953 -1.835447 -27.422350 241.171753
24 241.149185 -0.042021 -3.300071 -178.667953 -1.835448 -27.422352 241.171753
[L_weapon_bone]
23 156.183838 0.000000 0.000000 0.000014 0.000007 0.000001 156.183838
24 156.183838 0.000000 0.000000 0.000014 0.000007 0.000001 156.183838
[L_front_hand01_01]
23 86.095154 20.947098 -0.655860 -0.366594 -0.477154 75.385574 88.609184
24 86.095154 20.947098 -0.655860 -0.366594 -0.477154 75.385582 88.609184
[L_front_hand02_01]
23 86.935165 -11.437475 24.513514 154.399796 -59.883835 -61.369587 91.046425
24 86.935165 -11.437475 24.513514 154.399826 -59.883846 -61.369614 91.046425
[L_front_hand03_01]
23 86.637497 -14.123976 -20.424902 -153.913879 58.118130 -62.702892 90.126129
24 86.637497 -14.123976 -20.424902 -153.913864 58.118141 -62.702885 90.126129
[L_front_hand01_02]
23 71.020905 -0.000179 0.000030 0.000334 -0.002323 -106.379684 71.020905
24 71.020905 -0.000179 0.000030 0.000334 -0.002323 -106.379700 71.020905
[L_front_hand02_02]
23 71.020927 -0.000119 0.000060 0.000334 -0.002323 -106.379684 71.020927
24 71.020927 -0.000119 0.000060 0.000334 -0.002323 -106.379700 71.020927
[L_front_hand03_02]
23 71.020905 -0.000060 0.000060 0.000334 -0.002323 -106.379684 71.020905
24 71.020905 -0.000060 0.000060 0.000334 -0.002323 -106.379700 71.020905
[R_forearm]
23 322.776428 -0.000060 0.000030 0.182824 0.111400 -121.769859 322.776428
24 322.776428 -0.000060 0.000030 0.183110 0.110930 -121.475273 322.776428
[R_front_hand]
23 238.847015 -0.006795 2.210259 -2.635298 -10.645461 -26.312506 238.857239
24 238.847015 -0.006795 2.210259 -2.635299 -10.645463 -26.312508 238.857239
[R_weapon_bone]
23 155.664093 0.002503 -0.000030 0.003487 0.001180 -90.988930 155.664078
24 155.664093 0.002503 -0.000030 0.003487 0.001180 -90.988930 155.664078
[R_front_hand01_01]
23 87.624611 14.231146 22.918642 -154.633484 -59.950607 61.746033 91.683487
24 87.624611 14.231146 22.918642 -154.633499 -59.950634 61.746063 91.683487
[R_front_hand02_01]
23 89.356956 14.367283 -19.491137 154.602661 58.302849 63.744389 92.579636
24 89.356956 14.367283 -19.491137 154.602676 58.302864 63.744400 92.579636
[R_front_hand03_01]
23 87.286232 -22.307278 -0.143439 0.162155 -0.423168 -75.767921 90.091743
24 87.286232 -22.307278 -0.143439 0.162155 -0.423168 -75.767921 90.091743
[R_front_hand01_02]
23 71.020905 0.000060 0.000119 0.002323 -0.000334 106.381714 71.020905
24 71.020905 0.000060 0.000119 0.002323 -0.000334 106.381729 71.020905
[R_front_hand02_02]
23 71.020844 -0.000030 -0.000119 0.002323 -0.000334 106.381714 71.020836
24 71.020844 -0.000030 -0.000119 0.002323 -0.000334 106.381729 71.020836
[R_front_hand03_02]
23 71.020905 0.000000 0.000030 0.002323 -0.000334 106.381714 71.020905
24 71.020905 0.000000 0.000030 0.002323 -0.000334 106.381729 71.020905
[null_rope01_connect]
23 328.732483 0.000000 -0.000238 168.454727 -30.906883 -135.521149 328.732483
24 328.732483 0.000000 -0.000238 166.228394 -26.296867 -133.158478 328.732483
[Rope1_Seg01]
23 0.000000 0.000000 0.000000 118.571487 -30.049295 145.687820 0.000000
24 0.000000 0.000000 0.000000 119.011688 -30.407101 144.861313 0.000000
[Rope1_Seg02]
23 139.999863 -0.000179 0.000000 -1.610192 -5.283168 -3.390581 139.999863
24 139.999863 -0.000179 0.000000 -1.640411 -5.131626 -3.143498 139.999863
[Rope1_Seg03]
23 139.999924 0.000060 -0.000060 -2.852653 -9.137959 -6.315087 139.999924
24 139.999924 0.000060 -0.000060 -2.938067 -8.855590 -5.847252 139.999924
[Rope1_Seg04]
23 139.999924 -0.000060 -0.000119 -5.108136 -19.342577 -16.326218 139.999924
24 139.999924 -0.000060 -0.000119 -5.671154 -18.856123 -14.866824 139.999924
[Rope1_Seg05]
23 139.999832 0.000119 -0.000060 -3.124080 -23.442440 -27.748495 139.999832
24 139.999832 0.000119 -0.000060 -4.153121 -25.598099 -29.137409 139.999832
[Rope1_Seg06]
23 139.999954 0.000119 -0.000060 -1.708118 -10.071144 -9.581743 139.999954
24 139.999954 0.000119 -0.000060 -1.882920 -8.981227 -11.714915 139.999954
[Rope1_Seg07]
23 139.999985 0.000060 0.000000 -1.938000 -11.471106 -6.658161 139.999985
24 139.999985 0.000060 0.000000 -1.232706 -7.555016 -6.562694 139.999985
[Rope1_Seg09]
23 121.602913 0.000119 -0.000089 -89.793175 -1.359789 0.847147 121.602913
24 121.602913 0.000119 -0.000089 -89.793175 -1.359789 0.847147 121.602913
[L_mid_hand01]
23 103.859421 1.038730 8.195221 109.056198 -40.604698 -13.201401 104.187431
24 103.859421 1.038730 8.195221 109.056213 -40.604706 -13.201406 104.187431
[L_mid_hand02]
23 105.572853 -4.139662 -10.864139 -146.713593 31.476528 -37.902313 106.211075
24 105.572853 -4.139662 -10.864139 -146.713593 31.476534 -37.902317 106.211075
[L_mid_hand03]
23 104.641464 17.579376 -3.913581 -14.267233 12.322316 43.898396 106.179977
24 104.641464 17.579376 -3.913581 -14.267236 12.322318 43.898403 106.179977
[null_rope02_connect]
23 328.732849 0.000179 -0.000119 175.347687 35.767117 -47.610485 328.732849
24 328.732849 0.000179 -0.000119 176.502808 31.260649 -47.553963 328.732849
[Rope2_Seg01]
23 0.000076 0.000112 0.000153 -52.126072 -33.828362 51.688740 0.000204
24 0.000076 0.000112 0.000153 -52.278111 -32.749310 52.515850 0.000204
[Rope2_Seg02]
23 139.999741 -0.000060 -0.000119 1.942364 4.027573 6.274661 139.999756
24 139.999741 -0.000060 -0.000119 1.954723 3.645791 6.238159 139.999756
[Rope2_Seg03]
23 140.000107 0.000030 0.000000 3.135683 7.107611 10.451434 140.000107
24 140.000107 0.000030 0.000000 3.249513 6.480930 10.417720 140.000107
[Rope2_Seg04]
23 139.999802 0.000000 -0.000060 4.808388 15.560045 17.632313 139.999802
24 139.999802 0.000000 -0.000060 5.435123 14.354780 18.145189 139.999802
[Rope2_Seg05]
23 139.999985 -0.000060 0.000119 2.217425 16.762980 20.070946 139.999985
24 139.999985 -0.000060 0.000119 3.538962 16.854813 21.165827 139.999985
[Rope2_Seg06]
23 139.999893 -0.000030 -0.000119 -0.198255 3.951938 23.315113 139.999893
24 139.999893 -0.000030 -0.000119 0.698418 5.335365 22.250294 139.999893
[Rope2_Seg07]
23 139.999893 0.000060 -0.000060 1.589160 2.040934 20.098297 139.999893
24 139.999893 0.000060 -0.000060 1.661173 3.241914 18.776720 139.999893
[Rope2_Seg09]
23 121.338966 0.000089 -0.000060 33.793236 -1.359788 -0.847141 121.338966
24 121.338966 0.000089 -0.000060 33.793236 -1.359788 -0.847141 121.338966
[R_mid_hand01]
23 104.680779 11.144459 -10.335981 -37.204079 31.906813 37.576260 105.778534
24 104.680779 11.144459 -10.335981 -37.204082 31.906818 37.576267 105.778534
[R_mid_hand02]
23 104.070427 2.443552 8.231699 70.367455 -42.427380 14.067807 104.424065
24 104.070427 2.443552 8.231699 70.367477 -42.427402 14.067811 104.424065
[R_mid_hand03]
23 106.028137 -11.221827 -5.996406 -169.893616 12.226661 -47.211018 106.788818
24 106.028137 -11.221827 -5.996406 -169.893616 12.226663 -47.211029 106.788818
[spine02]
23 129.756927 0.001550 0.000119 -1.023899 -3.926965 6.770993 129.756927
24 129.756927 0.001550 0.000119 -1.023899 -3.926965 6.770993 129.756927
[spine03]
23 78.613846 0.087372 -4.898873 1.040681 4.146420 4.212376 78.766380
24 78.613846 0.087372 -4.898873 1.040681 4.146420 4.212377 78.766380
[pelvis]
23 169.435242 0.051022 0.000000 0.019518 -0.190233 -10.721436 169.435257
24 169.435242 0.051022 0.000000 0.019518 -0.190233 -10.721437 169.435257
[null_rope03_connect]
23 -1.257226 -2.466202 137.391083 -21.270773 -88.830139 107.896637 137.418976
24 -1.257226 -2.466202 137.391083 -21.271032 -88.830643 107.896927 137.418976
[null_rope04_connect]
23 -1.259640 -2.480268 -137.844437 -21.270773 -88.830139 107.896637 137.872513
24 -1.259640 -2.480268 -137.844437 -21.271032 -88.830643 107.896927 137.872513
[Rope3_Seg01]
23 0.000000 0.000000 0.000000 -145.270737 -42.343929 -61.448734 0.000000
24 0.000000 0.000000 0.000000 -137.884628 -45.901806 -74.106232 0.000000
[Rope3_Seg02]
23 139.999924 -0.000119 0.000060 5.291044 -12.287649 7.275588 139.999924
24 139.999924 -0.000119 0.000060 3.773535 -15.643428 6.615299 139.999924
[Rope3_Seg03]
23 139.999924 -0.000119 0.000119 6.422555 -17.027147 13.466741 139.999924
24 139.999924 -0.000119 0.000119 5.401567 -22.075594 12.385803 139.999924
[Rope3_Seg04]
23 139.999924 0.000119 0.000000 3.583819 -11.929592 16.242138 139.999924
24 139.999924 0.000119 0.000000 3.830516 -15.144877 12.735391 139.999924
[Rope3_Seg05]
23 139.999924 -0.000238 0.000060 1.955003 -13.193871 12.203530 139.999924
24 139.999924 -0.000238 0.000060 3.091910 -14.071893 10.208221 139.999924
[Rope3_Seg06]
23 139.999893 -0.000119 -0.000060 -0.544827 -28.925671 22.460295 139.999893
24 139.999893 -0.000119 -0.000060 2.385978 -27.794544 21.127115 139.999893
[Rope3_Seg07]
23 139.999771 0.000060 -0.000119 -0.622815 -19.420595 18.135685 139.999771
24 139.999771 0.000060 -0.000119 1.029203 -18.396643 18.033724 139.999771
[Rope3_Seg08]
23 139.999985 -0.000060 0.000000 0.303190 -7.253442 7.376418 139.999985
24 139.999985 -0.000060 0.000000 0.784957 -7.000423 7.724160 139.999985
[Rope3_Seg09]
23 90.185997 -0.000179 -0.000060 89.793228 -1.359877 -0.847183 90.185997
24 90.185997 -0.000179 -0.000060 89.793228 -1.359877 -0.847183 90.185997
[R_rear_hand01]
23 103.366196 -6.073594 -10.757982 -164.755127 19.627697 -40.352161 104.101845
24 103.366196 -6.073594 -10.757982 -164.755127 19.627705 -40.352173 104.101845
[R_rear_hand02]
23 100.509819 12.039542 -7.992327 -30.792652 24.782448 38.141541 101.543350
24 100.509819 12.039542 -7.992327 -30.792652 24.782452 38.141541 101.543350
[R_rear_hand03]
23 101.539970 5.215704 5.435467 82.448349 -41.048256 8.840378 101.819031
24 101.539970 5.215704 5.435467 82.448364 -41.048264 8.840384 101.819031
[Rope4_Seg01]
23 0.000008 -0.000040 -0.000007 61.875423 -45.514912 -114.177963 0.000041
24 0.000010 -0.000038 0.000000 61.682934 -45.219051 -114.057785 0.000039
[Rope4_Seg02]
23 139.999985 0.000060 0.000119 -6.174245 5.779417 -14.185190 139.999985
24 139.999985 0.000060 0.000119 -5.713232 5.638277 -13.217539 139.999985
[Rope4_Seg03]
23 139.999924 0.000000 -0.000238 -9.896230 11.115544 -21.344954 139.999924
24 139.999924 0.000000 -0.000238 -9.329015 10.849331 -20.439590 139.999924
[Rope4_Seg04]
23 139.999985 0.000000 0.000119 -6.771115 14.372366 -16.637136 139.999985
24 139.999985 0.000000 0.000119 -6.970923 15.097373 -17.261995 139.999985
[Rope4_Seg05]
23 139.999802 -0.000060 -0.000119 -2.589572 8.496116 -11.429524 139.999802
24 139.999802 -0.000060 -0.000119 -2.506454 8.918241 -11.784684 139.999802
[Rope4_Seg06]
23 139.999924 0.000000 0.000060 -5.821150 13.951929 -27.715940 139.999924
24 139.999924 0.000000 0.000060 -5.410624 13.484548 -28.030178 139.999924
[Rope4_Seg07]
23 139.999802 0.000000 0.000000 -6.699726 18.703815 -35.837986 139.999802
24 139.999802 0.000000 0.000000 -6.715597 17.821342 -36.458786 139.999802
[Rope4_Seg08]
23 139.999924 0.000000 0.000119 -1.741277 7.596828 -12.167144 139.999924
24 139.999924 0.000000 0.000119 -1.948319 7.300046 -12.238935 139.999924
[Rope4_Seg09]
23 90.185791 0.000060 0.000060 -135.617828 2.228885 0.850567 90.185791
24 90.185791 0.000060 0.000060 -135.617828 2.228885 0.850567 90.185791
[L_rear_hand01]
23 101.696655 -8.392275 -7.654577 -31.684452 -23.583008 144.025742 102.329041
24 101.696655 -8.392275 -7.654577 -31.684456 -23.583014 144.025742 102.329041
[L_rear_hand02]
23 102.726799 -1.568258 5.773216 82.701553 38.753956 171.553619 102.900848
24 102.726799 -1.568258 5.773216 82.701569 38.753960 171.553619 102.900848
[L_rear_hand03]
23 104.552910 9.721220 -10.420293 -163.975388 -19.004423 -142.009338 105.519653
24 104.552910 9.721220 -10.420293 -163.975403 -19.004425 -142.009354 105.519653
